<svg width="23" height="22" viewBox="0 0 23 22" fill="none" xmlns="http://www.w3.org/2000/svg">
<rect width="23" height="22" fill="#1E1E1E"/>
<g id="Meeting List" clip-path="url(#clip0_0_1)">
<rect width="1440" height="1024" transform="translate(-27 -302)" fill="#FAFBFC"/>
<rect id="Rectangle 34" x="-26.5" y="-301.5" width="279" height="1023" fill="white" stroke="#EAEBF0"/>
<g id="Frame 48">
<g id="Frame 46">
<g id="Group 41">
<rect id="Rectangle 36" x="-27" y="-12" width="278.818" height="46" fill="white"/>
<g id="Frame 41">
<g id="chart underlined">
<path id="Icon" d="M3.63184 19.25H20.1318M9.13184 15.5833V12.8333C9.13184 11.8208 8.31102 11 7.2985 11H5.46517C4.45265 11 3.63184 11.8208 3.63184 12.8333V13.75C3.63184 14.7625 4.45265 15.5833 5.46517 15.5833H9.13184ZM9.13184 15.5833H14.6318M9.13184 15.5833V9.16667C9.13184 8.15414 9.95265 7.33333 10.9652 7.33333H12.7985C13.811 7.33333 14.6318 8.15414 14.6318 9.16667V15.5833M14.6318 15.5833H18.2985C19.311 15.5833 20.1318 14.7625 20.1318 13.75V4.58333C20.1318 3.57081 19.311 2.75 18.2985 2.75H16.4652C15.4526 2.75 14.6318 3.57081 14.6318 4.58333V15.5833Z" stroke="#5C7299" stroke-width="1.5" stroke-linecap="round"/>
</g>
</g>
</g>
</g>
</g>
</g>
<defs>
<clipPath id="clip0_0_1">
<rect width="1440" height="1024" fill="white" transform="translate(-27 -302)"/>
</clipPath>
</defs>
</svg>
