<svg width="18" height="18" viewBox="0 0 18 18" fill="none" xmlns="http://www.w3.org/2000/svg">
<g id="diamond">
<path id="Icon" d="M14.0845 4.5573L13.3822 4.82065L14.0845 4.5573ZM15.2079 7.553L14.5056 7.81635V7.81635L15.2079 7.553ZM14.6577 10.0928L14.1274 9.56243L14.6577 10.0928ZM10.6976 14.0529L11.2279 14.5833L10.6976 14.0529ZM7.30345 14.0529L7.83378 13.5226L7.30345 14.0529ZM3.34326 10.0928L2.81293 10.6231H2.81293L3.34326 10.0928ZM2.79313 7.553L3.49538 7.81635L2.79313 7.553ZM3.91652 4.5573L4.61877 4.82065L3.91652 4.5573ZM2.63839 9.26413L1.96051 9.58505H1.96051L2.63839 9.26413ZM2.49432 8.59903L1.74441 8.58739L2.49432 8.59903ZM9.46403 15.0553L9.6958 15.7686H9.6958L9.46403 15.0553ZM8.53698 15.0553L8.30522 15.7686H8.30522L8.53698 15.0553ZM15.5067 8.59903L16.2566 8.5874L16.2566 8.58739L15.5067 8.59903ZM15.3626 9.26413L16.0405 9.58505L16.0405 9.58504L15.3626 9.26413ZM12.9945 3.09807L12.7277 3.79904L12.7277 3.79904L12.9945 3.09807ZM13.5864 3.50824L13.0237 4.00412V4.00412L13.5864 3.50824ZM5.00654 3.09807L4.7398 2.39711L4.7398 2.39711L5.00654 3.09807ZM4.41465 3.50824L3.85198 3.01237L3.85198 3.01237L4.41465 3.50824ZM6.16371 3.75H11.8373V2.25H6.16371V3.75ZM13.3822 4.82065L14.5056 7.81635L15.9101 7.28966L14.7867 4.29396L13.3822 4.82065ZM14.1274 9.56243L10.1672 13.5226L11.2279 14.5833L15.1881 10.6231L14.1274 9.56243ZM7.83378 13.5226L3.87359 9.56242L2.81293 10.6231L6.77312 14.5833L7.83378 13.5226ZM3.49538 7.81635L4.61877 4.82065L3.21427 4.29396L2.09088 7.28966L3.49538 7.81635ZM3.87359 9.56243C3.43769 9.12652 3.35856 9.03257 3.31626 8.94322L1.96051 9.58505C2.14071 9.96569 2.45734 10.2675 2.81293 10.6231L3.87359 9.56243ZM2.09088 7.28966C1.91431 7.76053 1.75095 8.16631 1.74441 8.58739L3.24423 8.61067C3.24577 8.51183 3.27892 8.39356 3.49538 7.81635L2.09088 7.28966ZM3.31626 8.94322C3.26709 8.83936 3.24245 8.72558 3.24423 8.61067L1.74441 8.58739C1.73906 8.93211 1.813 9.27344 1.96051 9.58505L3.31626 8.94322ZM10.1672 13.5226C9.86147 13.8284 9.66363 14.0254 9.50109 14.1634C9.34525 14.2957 9.27185 14.3291 9.23227 14.342L9.6958 15.7686C9.99871 15.6701 10.2451 15.4994 10.4719 15.3069C10.692 15.12 10.9396 14.8715 11.2279 14.5833L10.1672 13.5226ZM6.77312 14.5833C7.06138 14.8715 7.30906 15.12 7.52916 15.3069C7.75595 15.4994 8.00231 15.6701 8.30522 15.7686L8.76874 14.342C8.72916 14.3291 8.65577 14.2957 8.49992 14.1634C8.33738 14.0254 8.13954 13.8284 7.83378 13.5226L6.77312 14.5833ZM9.23227 14.342C9.08164 14.3909 8.91938 14.3909 8.76874 14.342L8.30522 15.7686C8.75712 15.9154 9.2439 15.9154 9.6958 15.7686L9.23227 14.342ZM14.5056 7.81635C14.7221 8.39356 14.7552 8.51183 14.7568 8.61067L16.2566 8.58739C16.2501 8.16631 16.0867 7.76054 15.9101 7.28966L14.5056 7.81635ZM15.1881 10.6231C15.5437 10.2675 15.8603 9.96569 16.0405 9.58505L14.6848 8.94322C14.6425 9.03257 14.5633 9.12652 14.1274 9.56243L15.1881 10.6231ZM14.7568 8.61067C14.7586 8.72558 14.7339 8.83936 14.6847 8.94323L16.0405 9.58504C16.188 9.27344 16.262 8.93211 16.2566 8.5874L14.7568 8.61067ZM11.8373 3.75C12.4983 3.75 12.63 3.76183 12.7277 3.79904L13.2612 2.39711C12.8435 2.23817 12.3756 2.25 11.8373 2.25V3.75ZM14.7867 4.29396C14.5978 3.78998 14.4445 3.34764 14.149 3.01236L13.0237 4.00412C13.0928 4.08261 13.1502 4.20172 13.3822 4.82065L14.7867 4.29396ZM12.7277 3.79904C12.8416 3.84235 12.9432 3.91274 13.0237 4.00412L14.149 3.01237C13.9074 2.73823 13.6027 2.52706 13.2612 2.39711L12.7277 3.79904ZM6.16371 2.25C5.62546 2.25 5.15747 2.23817 4.7398 2.39711L5.27327 3.79904C5.37104 3.76183 5.50269 3.75 6.16371 3.75V2.25ZM4.61877 4.82065C4.85086 4.20172 4.90816 4.08261 4.97733 4.00412L3.85198 3.01237C3.55651 3.34764 3.40326 3.78998 3.21427 4.29396L4.61877 4.82065ZM4.7398 2.39711C4.39829 2.52706 4.09357 2.73823 3.85198 3.01237L4.97733 4.00412C5.05786 3.91274 5.15944 3.84235 5.27327 3.79904L4.7398 2.39711Z" fill="#DFA800"/>
</g>
</svg>
