<svg width="19" height="18" viewBox="0 0 19 18" fill="none" xmlns="http://www.w3.org/2000/svg">
<g id="check/loading">
<path id="Icon" d="M13.0977 6.75L8.27286 11.8547C8.0898 12.0484 7.79301 12.0484 7.60995 11.8547L5.59766 9.72569M5.22266 16.1463C4.09738 15.4954 3.14011 14.5863 2.43185 13.5M5.22266 1.8537C4.09738 2.50464 3.14011 3.41374 2.43185 4.5M1.31166 10.875C1.17167 10.2726 1.09766 9.64496 1.09766 9C1.09766 8.35504 1.17167 7.72736 1.31166 7.125M7.84766 0.886032C8.33407 0.796685 8.83541 0.75 9.34766 0.75C13.904 0.75 17.5977 4.44365 17.5977 9C17.5977 13.5563 13.904 17.25 9.34766 17.25C8.83541 17.25 8.33407 17.2033 7.84766 17.114" stroke="#5F6D7E" stroke-width="1.2" stroke-linecap="round"/>
</g>
</svg>
