<svg width="23" height="22" viewBox="0 0 23 22" fill="none" xmlns="http://www.w3.org/2000/svg">
<g id="exit">
<path id="Icon" d="M6.93085 6.41634C6.93085 6.83055 7.26664 7.16634 7.68085 7.16634C8.09506 7.16634 8.43085 6.83055 8.43085 6.41634H6.93085ZM8.43085 15.583C8.43085 15.1688 8.09506 14.833 7.68085 14.833C7.26664 14.833 6.93085 15.1688 6.93085 15.583H8.43085ZM8.68187 19.9665L9.02236 19.2983H9.02236L8.68187 19.9665ZM7.88067 19.1653L7.21242 19.5058L7.21242 19.5058L7.88067 19.1653ZM18.481 19.1653L19.1493 19.5058L18.481 19.1653ZM17.6798 19.9665L17.3393 19.2983H17.3393L17.6798 19.9665ZM17.6798 2.03283L17.3393 2.70108L17.3393 2.70108L17.6798 2.03283ZM18.481 2.83403L17.8128 3.17452L18.481 2.83403ZM7.88067 2.83403L7.21242 2.49353V2.49353L7.88067 2.83403ZM8.68187 2.03283L8.34137 1.36457V1.36457L8.68187 2.03283ZM3.09752 10.2497C2.6833 10.2497 2.34752 10.5855 2.34752 10.9997C2.34752 11.4139 2.6833 11.7497 3.09752 11.7497L3.09752 10.2497ZM13.1809 11.7497C13.5951 11.7497 13.9309 11.4139 13.9309 10.9997C13.9309 10.5855 13.5951 10.2497 13.1809 10.2497L13.1809 11.7497ZM5.46118 8.78C5.75407 8.48711 5.75407 8.01224 5.46118 7.71934C5.16829 7.42645 4.69341 7.42645 4.40052 7.71934L5.46118 8.78ZM3.21794 9.96258L2.68761 9.43225H2.68761L3.21794 9.96258ZM3.21794 12.0368L2.68761 12.5671L2.68761 12.5671L3.21794 12.0368ZM4.40052 14.28C4.69341 14.5729 5.16829 14.5729 5.46118 14.28C5.75407 13.9871 5.75407 13.5122 5.46118 13.2193L4.40052 14.28ZM2.60541 10.7164L3.3187 10.9482H3.3187L2.60541 10.7164ZM2.60541 11.2829L3.3187 11.0512L2.60541 11.2829ZM8.43085 6.41634V4.76634H6.93085V6.41634H8.43085ZM10.6142 2.58301H15.7475V1.08301H10.6142V2.58301ZM17.9309 4.76634V17.233H19.4309V4.76634H17.9309ZM15.7475 19.4163H10.6142V20.9163H15.7475V19.4163ZM8.43085 17.233V15.583H6.93085V17.233H8.43085ZM10.6142 19.4163C10.0884 19.4163 9.73921 19.4158 9.47113 19.3939C9.2118 19.3727 9.0951 19.3353 9.02236 19.2983L8.34137 20.6348C8.66081 20.7975 8.99689 20.8601 9.34898 20.8889C9.69232 20.9169 10.1132 20.9163 10.6142 20.9163V19.4163ZM6.93085 17.233C6.93085 17.734 6.93027 18.1549 6.95832 18.4982C6.98709 18.8503 7.04966 19.1864 7.21242 19.5058L8.54893 18.8248C8.51187 18.7521 8.47453 18.6354 8.45334 18.3761C8.43143 18.108 8.43085 17.7588 8.43085 17.233H6.93085ZM9.02236 19.2983C8.81852 19.1944 8.65279 19.0287 8.54893 18.8248L7.21242 19.5058C7.46009 19.9919 7.85529 20.3871 8.34138 20.6348L9.02236 19.2983ZM17.9309 17.233C17.9309 17.7588 17.9303 18.108 17.9084 18.3761C17.8872 18.6354 17.8498 18.7521 17.8128 18.8248L19.1493 19.5058C19.312 19.1864 19.3746 18.8503 19.4034 18.4982C19.4314 18.1549 19.4309 17.734 19.4309 17.233H17.9309ZM15.7475 20.9163C16.2485 20.9163 16.6694 20.9169 17.0127 20.8889C17.3648 20.8601 17.7009 20.7975 18.0203 20.6348L17.3393 19.2983C17.2666 19.3353 17.1499 19.3727 16.8906 19.3939C16.6225 19.4158 16.2733 19.4163 15.7475 19.4163V20.9163ZM17.8128 18.8248C17.7089 19.0287 17.5432 19.1944 17.3393 19.2983L18.0203 20.6348C18.5064 20.3871 18.9016 19.9919 19.1493 19.5058L17.8128 18.8248ZM15.7475 2.58301C16.2733 2.58301 16.6225 2.58359 16.8906 2.60549C17.1499 2.62668 17.2666 2.66402 17.3393 2.70108L18.0203 1.36457C17.7009 1.20181 17.3648 1.13924 17.0127 1.11048C16.6694 1.08242 16.2485 1.08301 15.7475 1.08301V2.58301ZM19.4309 4.76634C19.4309 4.26534 19.4314 3.84447 19.4034 3.50114C19.3746 3.14904 19.312 2.81297 19.1493 2.49353L17.8128 3.17452C17.8498 3.24725 17.8872 3.36395 17.9084 3.62329C17.9303 3.89137 17.9309 4.24058 17.9309 4.76634H19.4309ZM17.3393 2.70108C17.5432 2.80495 17.7089 2.97068 17.8128 3.17452L19.1493 2.49353C18.9016 2.00745 18.5064 1.61225 18.0203 1.36457L17.3393 2.70108ZM8.43085 4.76634C8.43085 4.24058 8.43143 3.89137 8.45334 3.62329C8.47453 3.36395 8.51187 3.24725 8.54893 3.17452L7.21242 2.49353C7.04966 2.81297 6.98709 3.14904 6.95832 3.50114C6.93027 3.84447 6.93085 4.26534 6.93085 4.76634H8.43085ZM10.6142 1.08301C10.1132 1.08301 9.69232 1.08242 9.34898 1.11048C8.99689 1.13924 8.66081 1.20181 8.34137 1.36457L9.02236 2.70108C9.0951 2.66402 9.2118 2.62668 9.47113 2.60549C9.73921 2.58359 10.0884 2.58301 10.6142 2.58301V1.08301ZM8.54893 3.17452C8.65279 2.97068 8.81852 2.80495 9.02236 2.70108L8.34137 1.36457C7.85529 1.61225 7.46009 2.00745 7.21242 2.49353L8.54893 3.17452ZM3.09752 11.7497L13.1809 11.7497L13.1809 10.2497L3.09752 10.2497L3.09752 11.7497ZM4.40052 7.71934L2.68761 9.43225L3.74827 10.4929L5.46118 8.78L4.40052 7.71934ZM2.68761 12.5671L4.40052 14.28L5.46118 13.2193L3.74827 11.5064L2.68761 12.5671ZM2.68761 9.43225C2.51485 9.60501 2.35298 9.76606 2.22929 9.91175C2.09992 10.0641 1.9689 10.2483 1.89212 10.4846L3.3187 10.9482C3.30993 10.9752 3.30366 10.964 3.3728 10.8825C3.44763 10.7944 3.55801 10.6832 3.74827 10.4929L2.68761 9.43225ZM3.74827 11.5064C3.55802 11.3162 3.44763 11.205 3.3728 11.1168C3.30366 11.0354 3.30993 11.0242 3.3187 11.0512L1.89212 11.5147C1.9689 11.751 2.09992 11.9352 2.22929 12.0876C2.35298 12.2333 2.51485 12.3943 2.68761 12.5671L3.74827 11.5064ZM1.89212 10.4846C1.78336 10.8194 1.78336 11.18 1.89212 11.5147L3.3187 11.0512C3.30783 11.0177 3.30783 10.9816 3.3187 10.9482L1.89212 10.4846Z" fill="#5F6D7E"/>
</g>
</svg>
