<svg width="19" height="18" viewBox="0 0 19 18" fill="none" xmlns="http://www.w3.org/2000/svg">
<g id="location pin/alt">
<path id="Icon" d="M6.34766 10.9013C4.55425 11.4201 3.34766 12.3896 3.34766 13.5C3.34766 15.1569 6.03395 16.5 9.34766 16.5C12.6614 16.5 15.3477 15.1569 15.3477 13.5C15.3477 12.3896 14.1411 11.4201 12.3477 10.9013M13.8477 6.3C13.8477 8.95097 10.4727 13.5 9.34766 13.5C8.22266 13.5 4.84766 8.95097 4.84766 6.3C4.84766 3.64903 6.86237 1.5 9.34766 1.5C11.8329 1.5 13.8477 3.64903 13.8477 6.3ZM10.8477 6C10.8477 6.82843 10.1761 7.5 9.34766 7.5C8.51923 7.5 7.84766 6.82843 7.84766 6C7.84766 5.17157 8.51923 4.5 9.34766 4.5C10.1761 4.5 10.8477 5.17157 10.8477 6Z" stroke="#5F6D7E" stroke-width="1.2"/>
</g>
</svg>
