<svg width="144" height="40" viewBox="0 0 144 40" fill="none" xmlns="http://www.w3.org/2000/svg">
<path d="M12.0703 18.4714C12.8178 15.6821 15.685 12.8149 18.4744 12.0674L35.8643 7.40707C38.6537 6.65956 40.3089 8.31479 39.5614 11.1041L34.9011 28.4941C34.1535 31.2834 31.2864 34.1506 28.497 34.8981L11.107 39.5585C8.31771 40.306 6.66249 38.6508 7.41 35.8614L12.0703 18.4714Z" fill="#C9CAE4"/>
<path d="M5.09963 11.4998C5.84715 8.71042 8.71433 5.84324 11.5037 5.09573L28.8937 0.435392C31.683 -0.312122 33.3382 1.3431 32.5907 4.13244L27.9304 21.5224C27.1829 24.3118 24.3157 27.1789 21.5263 27.9264L4.13635 32.5868C1.34701 33.3343 -0.308214 31.6791 0.4393 28.8897L5.09963 11.4998Z" fill="white"/>
<path d="M57.18 27.24C53.66 27.24 51.54 25.36 51.54 22.34C51.54 21.86 51.6 21.36 51.7 20.84L53.26 13H56.52L54.96 20.78C54.88 21.22 54.84 21.6 54.84 21.96C54.84 23.66 55.8 24.48 57.54 24.48C59.5 24.48 60.64 23.4 61.18 20.78L62.74 13H65.92L64.34 20.98C63.5 25.12 61.12 27.24 57.18 27.24ZM66.1417 27L69.1017 12.16H72.2217L69.2617 27H66.1417ZM78.0386 18.88L77.1786 23.2C77.1386 23.36 77.1386 23.5 77.1386 23.64C77.1386 24.3 77.4986 24.68 78.2786 24.68C78.6986 24.68 79.1386 24.54 79.5386 24.3L79.9986 26.52C79.2186 27 78.2586 27.16 77.3186 27.16C75.3186 27.16 73.9586 26.04 73.9586 24.16C73.9586 23.86 73.9986 23.54 74.0586 23.22L74.9186 18.88H73.2586L73.7386 16.48H75.3986L75.9186 13.86H79.0386L78.5186 16.48H81.1986L80.7186 18.88H78.0386ZM85.85 14.74C84.75 14.74 84.03 14.02 84.03 13.12C84.03 12.08 84.85 11.26 86.09 11.26C87.19 11.26 87.93 11.94 87.93 12.82C87.93 13.96 87.09 14.74 85.85 14.74ZM81.63 27L83.77 16.24H86.87L84.73 27H81.63ZM103.606 13H106.386L103.606 27H100.566L102.206 18.68L96.8661 25.52H95.4261L92.5461 18.6L90.8661 27H87.8261L90.6261 13H93.2661L96.7661 21.72L103.606 13ZM118.408 20.82C118.408 21.4 118.328 21.96 118.228 22.46H109.988C110.088 23.92 110.988 24.66 112.768 24.66C113.868 24.66 114.908 24.3 115.648 23.66L116.948 25.72C115.708 26.72 114.088 27.16 112.448 27.16C109.088 27.16 106.948 25.26 106.948 22.34C106.948 18.74 109.548 16.08 113.288 16.08C116.428 16.08 118.408 17.94 118.408 20.82ZM113.148 18.42C111.648 18.42 110.628 19.3 110.208 20.64H115.548C115.548 19.22 114.588 18.42 113.148 18.42ZM130.966 20.82C130.966 21.4 130.886 21.96 130.786 22.46H122.546C122.646 23.92 123.546 24.66 125.326 24.66C126.426 24.66 127.466 24.3 128.206 23.66L129.506 25.72C128.266 26.72 126.646 27.16 125.006 27.16C121.646 27.16 119.506 25.26 119.506 22.34C119.506 18.74 122.106 16.08 125.846 16.08C128.986 16.08 130.966 17.94 130.966 20.82ZM125.706 18.42C124.206 18.42 123.186 19.3 122.766 20.64H128.106C128.106 19.22 127.146 18.42 125.706 18.42ZM133.07 27L135.33 15.64H130.85L131.39 13H143.59L143.05 15.64H138.59L136.31 27H133.07Z" fill="white"/>
</svg>
