<svg width="23" height="22" viewBox="0 0 23 22" fill="none" xmlns="http://www.w3.org/2000/svg">
<g id="ring/notification/1 ">
<path id="Icon" d="M13.7716 18.3336C13.1253 18.9041 12.2762 19.2502 11.3464 19.2502C10.4165 19.2502 9.56745 18.9041 8.92109 18.3336M16.844 12.0827V9.16699C16.844 6.12157 14.3918 3.66699 11.3464 3.66699C8.30093 3.66699 5.81552 6.01692 5.81552 9.16699V12.063C5.81552 12.5059 5.74649 12.9459 5.61109 13.3661L4.93416 15.4666C4.91562 15.5241 4.95701 15.5835 5.01563 15.5835H17.6376C17.6996 15.5835 17.7436 15.5232 17.7246 15.4642L17.043 13.3493C16.9111 12.9401 16.844 12.5127 16.844 12.0827Z" stroke="#5C7299" stroke-width="1.5" stroke-linecap="round"/>
</g>
</svg>
