<svg width="23" height="22" viewBox="0 0 23 22" fill="none" xmlns="http://www.w3.org/2000/svg">
<g id="star">
<path id="Icon" d="M14.027 6.49716L12.1365 3.20615C11.7854 2.59509 10.9049 2.59217 10.5498 3.20088L8.55483 6.62084C8.29059 7.07383 7.84502 7.39196 7.33079 7.49481L4.60488 8.03999C3.89888 8.18119 3.62378 9.04385 4.11769 9.56771L6.08929 11.6588C6.51088 12.1059 6.68039 12.7346 6.54075 13.3331L5.64834 17.1577C5.4649 17.9439 6.31382 18.5661 7.00835 18.1546L10.413 16.137C10.9893 15.7954 11.706 15.7954 12.2823 16.137L15.687 18.1546C16.3816 18.5661 17.2305 17.9439 17.047 17.1577L16.1468 13.2996C16.0115 12.7196 16.1663 12.1101 16.5619 11.665L18.536 9.44421C19.0063 8.91508 18.7248 8.07519 18.0306 7.93635L15.2572 7.38167C14.7388 7.27799 14.2904 6.95557 14.027 6.49716Z" stroke="#5F6D7E" stroke-width="1.5" stroke-miterlimit="10"/>
</g>
</svg>
