<svg width="23" height="22" viewBox="0 0 23 22" fill="none" xmlns="http://www.w3.org/2000/svg">
<g id="headphones">
<path id="Icon" d="M4.42718 18.0133L4.10668 18.6914L4.10668 18.6914L4.42718 18.0133ZM4.42718 10.404L4.74767 11.0821L4.42718 10.404ZM5.07769 10.2757L5.19878 9.53559L5.07769 10.2757ZM5.68433 10.66L6.30176 10.2342L5.68433 10.66ZM5.07769 18.1416L5.19878 18.8817L5.07769 18.1416ZM5.68433 17.7573L5.06689 17.3315L5.06689 17.3315L5.68433 17.7573ZM18.2655 18.0133L18.586 18.6914V18.6914L18.2655 18.0133ZM18.2655 10.404L17.945 11.0821L18.2655 10.404ZM17.615 10.2757L17.4939 9.53559L17.615 10.2757ZM17.0084 10.66L16.391 10.2342L17.0084 10.66ZM17.615 18.1416L17.4939 18.8817L17.615 18.1416ZM17.0084 17.7573L17.6258 17.3315V17.3315L17.0084 17.7573ZM4.74767 17.3352C3.71348 16.8464 2.92969 15.6581 2.92969 14.2087H1.42969C1.42969 16.1835 2.50026 17.9321 4.10668 18.6914L4.74767 17.3352ZM2.92969 14.2087C2.92969 12.7592 3.71348 11.5709 4.74767 11.0821L4.10668 9.72593C2.50026 10.4852 1.42969 12.2338 1.42969 14.2087H2.92969ZM6.59635 16.867V11.5503H5.09635V16.867H6.59635ZM4.74767 11.0821C4.81327 11.0511 4.85039 11.0337 4.88173 11.0206C4.90959 11.009 4.91737 11.0075 4.9147 11.0081C4.91315 11.0085 4.91037 11.0091 4.90704 11.0095C4.90374 11.0099 4.90197 11.0099 4.90248 11.0099C4.90379 11.0099 4.91918 11.0098 4.9566 11.0159L5.19878 9.53559C4.98362 9.50039 4.77862 9.498 4.56333 9.54988C4.37683 9.59482 4.21093 9.67665 4.10668 9.72593L4.74767 11.0821ZM6.59635 11.5503C6.59635 11.1661 6.61952 10.6951 6.30176 10.2342L5.06689 11.0858C5.07162 11.0926 5.07392 11.0967 5.07485 11.0985C5.07573 11.1002 5.07608 11.101 5.07634 11.1017C5.07655 11.1023 5.08009 11.1113 5.08398 11.1379C5.08826 11.1671 5.09204 11.2109 5.09415 11.2821C5.09629 11.3544 5.09635 11.438 5.09635 11.5503H6.59635ZM4.9566 11.0159C4.93671 11.0127 4.9259 11.0091 4.92544 11.009C4.92437 11.0086 4.92828 11.0099 4.93705 11.0137C4.95535 11.0217 4.98131 11.0352 5.01011 11.0534C5.0389 11.0717 5.06218 11.0894 5.07724 11.1025C5.08446 11.1088 5.08723 11.1118 5.08646 11.111C5.08613 11.1106 5.07833 11.1024 5.06689 11.0858L6.30176 10.2342C6.16455 10.0353 5.96485 9.88258 5.81276 9.78625C5.66068 9.68991 5.4373 9.57461 5.19878 9.53559L4.9566 11.0159ZM4.10668 18.6914C4.21093 18.7407 4.37683 18.8225 4.56333 18.8674C4.77862 18.9193 4.98362 18.9169 5.19878 18.8817L4.9566 17.4014C4.91918 17.4075 4.9038 17.4074 4.90248 17.4074C4.90197 17.4074 4.90374 17.4074 4.90704 17.4078C4.91037 17.4082 4.91315 17.4088 4.9147 17.4092C4.91737 17.4098 4.90959 17.4083 4.88173 17.3967C4.85039 17.3836 4.81327 17.3662 4.74767 17.3352L4.10668 18.6914ZM5.09635 16.867C5.09635 16.9793 5.09629 17.0629 5.09415 17.1352C5.09204 17.2064 5.08826 17.2502 5.08398 17.2794C5.08009 17.306 5.07655 17.3151 5.07634 17.3156C5.07608 17.3163 5.07573 17.3172 5.07485 17.3188C5.07392 17.3206 5.07162 17.3247 5.06689 17.3315L6.30176 18.1831C6.61952 17.7223 6.59635 17.2512 6.59635 16.867H5.09635ZM5.19878 18.8817C5.4373 18.8427 5.66068 18.7274 5.81276 18.6311C5.96485 18.5347 6.16455 18.382 6.30176 18.1831L5.06689 17.3315C5.07833 17.315 5.08613 17.3067 5.08646 17.3063C5.08723 17.3055 5.08446 17.3085 5.07724 17.3148C5.06218 17.3279 5.0389 17.3456 5.01011 17.3639C4.98131 17.3821 4.95535 17.3956 4.93705 17.4036C4.92828 17.4074 4.92437 17.4087 4.92544 17.4083C4.9259 17.4082 4.93671 17.4047 4.9566 17.4014L5.19878 18.8817ZM18.586 18.6914C20.1924 17.9321 21.263 16.1835 21.263 14.2087H19.763C19.763 15.6581 18.9792 16.8464 17.945 17.3352L18.586 18.6914ZM21.263 14.2087C21.263 12.2338 20.1924 10.4852 18.586 9.72593L17.945 11.0821C18.9792 11.5709 19.763 12.7592 19.763 14.2087H21.263ZM17.5964 16.867V11.5503H16.0964V16.867H17.5964ZM18.586 9.72593C18.4818 9.67665 18.3159 9.59482 18.1294 9.54988C17.9141 9.498 17.7091 9.50039 17.4939 9.53559L17.7361 11.0159C17.7735 11.0098 17.7889 11.0099 17.7902 11.0099C17.7907 11.0099 17.789 11.0099 17.7857 11.0095C17.7823 11.0091 17.7796 11.0085 17.778 11.0081C17.7753 11.0075 17.7831 11.009 17.811 11.0206C17.8423 11.0337 17.8794 11.0511 17.945 11.0821L18.586 9.72593ZM17.5964 11.5503C17.5964 11.438 17.5964 11.3544 17.5986 11.2821C17.6007 11.2109 17.6045 11.1671 17.6087 11.1379C17.6126 11.1113 17.6162 11.1023 17.6164 11.1017C17.6166 11.101 17.617 11.1002 17.6179 11.0985C17.6188 11.0967 17.6211 11.0926 17.6258 11.0858L16.391 10.2342C16.0732 10.6951 16.0964 11.1661 16.0964 11.5503H17.5964ZM17.4939 9.53559C17.2554 9.57461 17.032 9.68991 16.8799 9.78625C16.7279 9.88258 16.5282 10.0353 16.391 10.2342L17.6258 11.0858C17.6144 11.1024 17.6066 11.1106 17.6062 11.111C17.6055 11.1118 17.6082 11.1088 17.6155 11.1025C17.6305 11.0894 17.6538 11.0717 17.6826 11.0534C17.7114 11.0352 17.7374 11.0217 17.7557 11.0137C17.7644 11.0099 17.7683 11.0086 17.7673 11.009C17.7668 11.0091 17.756 11.0127 17.7361 11.0159L17.4939 9.53559ZM17.945 17.3352C17.8794 17.3662 17.8423 17.3836 17.811 17.3967C17.7831 17.4083 17.7753 17.4098 17.778 17.4092C17.7796 17.4088 17.7823 17.4082 17.7857 17.4078C17.789 17.4074 17.7907 17.4074 17.7902 17.4074C17.7889 17.4074 17.7735 17.4075 17.7361 17.4014L17.4939 18.8817C17.7091 18.9169 17.9141 18.9193 18.1294 18.8674C18.3159 18.8225 18.4818 18.7407 18.586 18.6914L17.945 17.3352ZM16.0964 16.867C16.0964 17.2512 16.0732 17.7223 16.391 18.1831L17.6258 17.3315C17.6211 17.3247 17.6188 17.3206 17.6179 17.3188C17.617 17.3172 17.6166 17.3163 17.6164 17.3156C17.6162 17.3151 17.6126 17.306 17.6087 17.2794C17.6045 17.2502 17.6007 17.2064 17.5986 17.1352C17.5964 17.0629 17.5964 16.9793 17.5964 16.867H16.0964ZM17.7361 17.4014C17.756 17.4047 17.7668 17.4082 17.7673 17.4083C17.7683 17.4087 17.7644 17.4074 17.7557 17.4036C17.7374 17.3956 17.7114 17.3821 17.6826 17.3639C17.6538 17.3456 17.6305 17.3279 17.6155 17.3148C17.6082 17.3085 17.6055 17.3055 17.6062 17.3063C17.6066 17.3067 17.6144 17.315 17.6258 17.3315L16.391 18.1831C16.5282 18.382 16.7279 18.5347 16.8799 18.6311C17.032 18.7274 17.2554 18.8427 17.4939 18.8817L17.7361 17.4014ZM4.76302 11.0003C4.76302 7.36445 7.71048 4.41699 11.3464 4.41699V2.91699C6.88205 2.91699 3.26302 6.53602 3.26302 11.0003H4.76302ZM11.3464 4.41699C14.9822 4.41699 17.9297 7.36445 17.9297 11.0003H19.4297C19.4297 6.53602 15.8107 2.91699 11.3464 2.91699V4.41699Z" fill="#5F6D7E"/>
</g>
</svg>
