<svg width="23" height="22" viewBox="0 0 23 22" fill="none" xmlns="http://www.w3.org/2000/svg">
<g id="calendar">
<path id="Icon" d="M2.99768 9.16667H19.4977M8.49768 4.58333H5.93101C4.90425 4.58333 4.39087 4.58333 3.9987 4.78315C3.65373 4.95892 3.37327 5.23939 3.1975 5.58435C2.99768 5.97652 2.99768 6.4899 2.99768 7.51667V16.3167C2.99768 17.3434 2.99768 17.8568 3.1975 18.249C3.37327 18.5939 3.65373 18.8744 3.9987 19.0502C4.39087 19.25 4.90425 19.25 5.93101 19.25H16.5643C17.5911 19.25 18.1045 19.25 18.4967 19.0502C18.8416 18.8744 19.1221 18.5939 19.2979 18.249C19.4977 17.8568 19.4977 17.3434 19.4977 16.3167V7.51667C19.4977 6.4899 19.4977 5.97652 19.2979 5.58435C19.1221 5.23939 18.8416 4.95892 18.4967 4.78315C18.1045 4.58333 17.5911 4.58333 16.5643 4.58333H13.9977M8.49768 4.58333H13.9977M8.49768 4.58333V4.125C8.49768 3.36561 7.88207 2.75 7.12268 2.75C6.36329 2.75 5.74768 3.36561 5.74768 4.125V4.58333M13.9977 4.58333V4.125C13.9977 3.36561 14.6133 2.75 15.3727 2.75C16.1321 2.75 16.7477 3.36561 16.7477 4.125V4.58333" stroke="#5C7299" stroke-width="1.5" stroke-linecap="round"/>
</g>
</svg>
